<svg width="1200" height="238" viewBox="0 0 1200 238" fill="none" xmlns="http://www.w3.org/2000/svg">
<path d="M0 107.45C13.3333 94.65 26.6667 94.65 40 107.45C55.8681 125.117 69.2014 125.117 80 107.45C93.3333 89.7833 106.667 89.7833 120 107.45C133.434 125.383 146.767 125.383 160 107.45C173.333 89.5167 186.667 89.5167 200 107.45C213.234 125.117 226.568 125.117 240 107.45C253.333 89.7833 266.667 89.7833 280 107.45C290.818 118.45 304.151 118.45 320 107.45C333.333 96.45 346.667 96.45 360 107.45C378.343 126.717 391.677 126.717 400 107.45C413.333 88.1833 426.667 88.1833 440 107.45C449.227 114.85 462.561 114.85 480 107.45C493.333 100.05 506.667 100.05 520 107.45C543.483 126.117 556.817 126.117 560 107.45C573.333 88.7833 586.667 88.7833 600 107.45C610.643 118.583 623.976 118.583 640 107.45C653.333 96.3167 666.667 96.3167 680 107.45C694.331 120.25 707.665 120.25 720 107.45C733.333 94.65 746.667 94.65 760 107.45C772.569 118.783 785.903 118.783 800 107.45C813.333 96.1167 826.667 96.1167 840 107.45C854.157 120.183 867.49 120.183 880 107.45C893.333 94.7167 906.667 94.7167 920 107.45C934.415 122.25 947.749 122.25 960 107.45C973.333 92.65 986.667 92.65 1000 107.45C1010.99 117.05 1024.32 117.05 1040 107.45C1053.33 97.85 1066.67 97.85 1080 107.45C1095.88 120.717 1109.21 120.717 1120 107.45C1133.33 94.1833 1146.67 94.1833 1160 107.45C1172.66 119.383 1186 119.383 1200 107.45" stroke="#7295FF" stroke-width="2"/>
<path d="M0 130.45C13.3333 113.45 26.6667 113.45 40 130.45C56.2876 154.983 69.6209 154.983 80 130.45C93.3333 105.917 106.667 105.917 120 130.45C133.659 156.183 146.993 156.183 160 130.45C173.333 104.717 186.667 104.717 200 130.45C210.225 144.183 223.558 144.183 240 130.45C253.333 116.717 266.667 116.717 280 130.45C301.65 161.317 314.984 161.317 320 130.45C333.333 99.5833 346.667 99.5833 360 130.45C371.85 154.45 385.184 154.45 400 130.45C413.333 106.45 426.667 106.45 440 130.45C449.648 141.183 462.981 141.183 480 130.45C493.333 119.717 506.667 119.717 520 130.45C540.083 152.05 553.416 152.05 560 130.45C573.333 108.85 586.667 108.85 600 130.45C609.383 139.25 622.716 139.25 640 130.45C653.333 121.65 666.667 121.65 680 130.45C703.838 153.117 717.172 153.117 720 130.45C733.333 107.783 746.667 107.783 760 130.45C773.588 153.983 786.922 153.983 800 130.45C813.333 106.917 826.667 106.917 840 130.45C854.92 159.583 868.253 159.583 880 130.45C893.333 101.317 906.667 101.317 920 130.45C933.669 161.05 947.002 161.05 960 130.45C973.333 99.85 986.667 99.85 1000 130.45C1011.81 154.05 1025.14 154.05 1040 130.45C1053.33 106.85 1066.67 106.85 1080 130.45C1095.5 161.717 1108.83 161.717 1120 130.45C1133.33 99.1833 1146.67 99.1833 1160 130.45C1171.43 152.783 1184.76 152.783 1200 130.45" stroke="#83A0F5" stroke-width="2"/>
<path d="M0 154.31C13.3333 135.043 26.6667 135.043 40 154.31C57.8824 186.723 71.2157 186.723 80 154.31C93.3333 121.897 106.667 121.897 120 154.31C131.678 178.677 145.012 178.677 160 154.31C173.333 129.943 186.667 129.943 200 154.31C213.333 178.677 226.667 178.677 240 154.31C253.333 129.943 266.667 129.943 280 154.31C292.031 173.917 305.364 173.917 320 154.31C333.333 134.703 346.667 134.703 360 154.31C375.954 181.623 389.287 181.623 400 154.31C413.333 126.997 426.667 126.997 440 154.31C453.721 183.21 467.054 183.21 480 154.31C493.333 125.41 506.667 125.41 520 154.31C533.49 183.89 546.824 183.89 560 154.31C573.333 124.73 586.667 124.73 600 154.31C611.648 176.41 624.981 176.41 640 154.31C653.333 132.21 666.667 132.21 680 154.31C694.496 180.263 707.829 180.263 720 154.31C733.333 128.357 746.667 128.357 760 154.31C771.383 172.67 784.716 172.67 800 154.31C813.333 135.95 826.667 135.95 840 154.31C851.728 168.25 865.062 168.25 880 154.31C893.333 140.37 906.667 140.37 920 154.31C935.718 173.237 949.051 173.237 960 154.31C973.333 135.383 986.667 135.383 1000 154.31C1011.42 167.797 1024.75 167.797 1040 154.31C1053.33 140.823 1066.67 140.823 1080 154.31C1101.01 183.323 1114.34 183.323 1120 154.31C1133.33 125.297 1146.67 125.297 1160 154.31C1172.66 180.377 1185.99 180.377 1200 154.31" stroke="#9EC8FF" stroke-width="2"/>
<path d="M0 178.52C13.3333 155.56 26.6667 155.56 40 178.52C49.7096 189 63.043 189 80 178.52C93.3333 168.04 106.667 168.04 120 178.52C142.697 203.72 156.031 203.72 160 178.52C173.333 153.32 186.667 153.32 200 178.52C212.91 202.12 226.243 202.12 240 178.52C253.333 154.92 266.667 154.92 280 178.52C294.96 207.88 308.294 207.88 320 178.52C333.333 149.16 346.667 149.16 360 178.52C368.574 186.92 381.907 186.92 400 178.52C413.333 170.12 426.667 170.12 440 178.52C471.175 209.4 484.508 209.4 480 178.52C493.333 147.64 506.667 147.64 520 178.52C530.242 195.08 543.575 195.08 560 178.52C573.333 161.96 586.667 161.96 600 178.52C611.884 191.48 625.217 191.48 640 178.52C653.333 165.56 666.667 165.56 680 178.52C695.885 196.44 709.218 196.44 720 178.52C733.333 160.6 746.667 160.6 760 178.52C771.101 190.44 784.435 190.44 800 178.52C813.333 166.6 826.667 166.6 840 178.52C859.911 202.2 873.244 202.2 880 178.52C893.333 154.84 906.667 154.84 920 178.52C935.495 209.88 948.829 209.88 960 178.52C973.333 147.16 986.667 147.16 1000 178.52C1009.12 190.04 1022.45 190.04 1040 178.52C1053.33 167 1066.67 167 1080 178.52C1091.94 187.64 1105.28 187.64 1120 178.52C1133.33 169.4 1146.67 169.4 1160 178.52C1180.64 197.64 1193.98 197.64 1200 178.52" stroke="#CDEAFF" stroke-width="2"/>
<path d="M0 11C13.3333 -2.33333 26.6667 -2.33333 40 11C53.3333 24.3333 66.6667 24.3333 80 11C93.3333 -2.33333 106.667 -2.33333 120 11C133.333 24.3333 146.667 24.3333 160 11C173.333 -2.33333 186.667 -2.33333 200 11C213.333 24.3333 226.667 24.3333 240 11C253.333 -2.33333 266.667 -2.33333 280 11C293.333 24.3333 306.667 24.3333 320 11C333.333 -2.33333 346.667 -2.33333 360 11C373.333 24.3333 386.667 24.3333 400 11C413.333 -2.33333 426.667 -2.33333 440 11C453.333 24.3333 466.667 24.3333 480 11C493.333 -2.33333 506.667 -2.33333 520 11C533.333 24.3333 546.667 24.3333 560 11C573.333 -2.33333 586.667 -2.33333 600 11C613.333 24.3333 626.667 24.3333 640 11C653.333 -2.33333 666.667 -2.33333 680 11C693.333 24.3333 706.667 24.3333 720 11C733.333 -2.33333 746.667 -2.33333 760 11C773.333 24.3333 786.667 24.3333 800 11C813.333 -2.33333 826.667 -2.33333 840 11C853.333 24.3333 866.667 24.3333 880 11C893.333 -2.33333 906.667 -2.33333 920 11C933.333 24.3333 946.667 24.3333 960 11C973.333 -2.33333 986.667 -2.33333 1000 11C1013.33 24.3333 1026.67 24.3333 1040 11C1053.33 -2.33333 1066.67 -2.33333 1080 11C1093.33 24.3333 1106.67 24.3333 1120 11C1133.33 -2.33333 1146.67 -2.33333 1160 11C1173.33 24.3333 1186.67 24.3333 1200 11" stroke="#5144C5" stroke-width="2"/>
<path d="M0 228C13.3333 214.667 26.6667 214.667 40 228C53.3333 241.333 66.6667 241.333 80 228C93.3333 214.667 106.667 214.667 120 228C133.333 241.333 146.667 241.333 160 228C173.333 214.667 186.667 214.667 200 228C213.333 241.333 226.667 241.333 240 228C253.333 214.667 266.667 214.667 280 228C293.333 241.333 306.667 241.333 320 228C333.333 214.667 346.667 214.667 360 228C373.333 241.333 386.667 241.333 400 228C413.333 214.667 426.667 214.667 440 228C453.333 241.333 466.667 241.333 480 228C493.333 214.667 506.667 214.667 520 228C533.333 241.333 546.667 241.333 560 228C573.333 214.667 586.667 214.667 600 228C613.333 241.333 626.667 241.333 640 228C653.333 214.667 666.667 214.667 680 228C693.333 241.333 706.667 241.333 720 228C733.333 214.667 746.667 214.667 760 228C773.333 241.333 786.667 241.333 800 228C813.333 214.667 826.667 214.667 840 228C853.333 241.333 866.667 241.333 880 228C893.333 214.667 906.667 214.667 920 228C933.333 241.333 946.667 241.333 960 228C973.333 214.667 986.667 214.667 1000 228C1013.33 241.333 1026.67 241.333 1040 228C1053.33 214.667 1066.67 214.667 1080 228C1093.33 241.333 1106.67 241.333 1120 228C1133.33 214.667 1146.67 214.667 1160 228C1173.33 241.333 1186.67 241.333 1200 228" stroke="#EAF3FB" stroke-width="2"/>
<path d="M0 30.1C13.3333 7.83333 26.6667 7.83333 40 30.1C51.2176 45.3 64.5509 45.3 80 30.1C93.3333 14.9 106.667 14.9 120 30.1C132.865 44.2333 146.199 44.2333 160 30.1C173.333 15.9667 186.667 15.9667 200 30.1C218.679 55.5667 232.013 55.5667 240 30.1C253.333 4.63333 266.667 4.63333 280 30.1C292.496 52.3667 305.829 52.3667 320 30.1C333.333 7.83333 346.667 7.83333 360 30.1C372.814 50.6333 386.148 50.6333 400 30.1C413.333 9.56667 426.667 9.56667 440 30.1C451.385 44.6333 464.719 44.6333 480 30.1C493.333 15.5667 506.667 15.5667 520 30.1C536.881 52.3667 550.214 52.3667 560 30.1C573.333 7.83333 586.667 7.83333 600 30.1C612.255 48.7667 625.589 48.7667 640 30.1C653.333 11.4333 666.667 11.4333 680 30.1C691.476 43.5667 704.81 43.5667 720 30.1C733.333 16.6333 746.667 16.6333 760 30.1C776.502 49.9667 789.835 49.9667 800 30.1C813.333 10.2333 826.667 10.2333 840 30.1C852.617 47.8333 865.951 47.8333 880 30.1C893.333 12.3667 906.667 12.3667 920 30.1C934.687 51.4333 948.02 51.4333 960 30.1C973.333 8.76667 986.667 8.76667 1000 30.1C1011.75 46.3667 1025.08 46.3667 1040 30.1C1053.33 13.8333 1066.67 13.8333 1080 30.1C1094.21 48.5 1107.54 48.5 1120 30.1C1133.33 11.7 1146.67 11.7 1160 30.1C1174.73 52.3667 1188.07 52.3667 1200 30.1" stroke="#2320E3" stroke-width="2"/>
<path d="M0 209.1C13.3333 186.833 26.6667 186.833 40 209.1C51.2176 224.3 64.5509 224.3 80 209.1C93.3333 193.9 106.667 193.9 120 209.1C132.865 223.233 146.199 223.233 160 209.1C173.333 194.967 186.667 194.967 200 209.1C218.679 234.567 232.013 234.567 240 209.1C253.333 183.633 266.667 183.633 280 209.1C292.496 231.367 305.829 231.367 320 209.1C333.333 186.833 346.667 186.833 360 209.1C372.814 229.633 386.148 229.633 400 209.1C413.333 188.567 426.667 188.567 440 209.1C451.385 223.633 464.719 223.633 480 209.1C493.333 194.567 506.667 194.567 520 209.1C536.881 231.367 550.214 231.367 560 209.1C573.333 186.833 586.667 186.833 600 209.1C612.255 227.767 625.589 227.767 640 209.1C653.333 190.433 666.667 190.433 680 209.1C691.476 222.567 704.81 222.567 720 209.1C733.333 195.633 746.667 195.633 760 209.1C776.502 228.967 789.835 228.967 800 209.1C813.333 189.233 826.667 189.233 840 209.1C852.617 226.833 865.951 226.833 880 209.1C893.333 191.367 906.667 191.367 920 209.1C934.687 230.433 948.02 230.433 960 209.1C973.333 187.767 986.667 187.767 1000 209.1C1011.75 225.367 1025.08 225.367 1040 209.1C1053.33 192.833 1066.67 192.833 1080 209.1C1094.21 227.5 1107.54 227.5 1120 209.1C1133.33 190.7 1146.67 190.7 1160 209.1C1174.73 231.367 1188.07 231.367 1200 209.1" stroke="#CEEBFF" stroke-width="2"/>
<path d="M0 51.875C13.3333 37.975 26.6667 37.975 40 51.875C58.753 77.075 72.0863 77.075 80 51.875C93.3333 26.675 106.667 26.675 120 51.875C131.693 70.875 145.026 70.875 160 51.875C173.333 32.875 186.667 32.875 200 51.875C213.298 70.775 226.632 70.775 240 51.875C253.333 32.975 266.667 32.975 280 51.875C297.954 83.875 311.287 83.875 320 51.875C333.333 19.875 346.667 19.875 360 51.875C372.271 78.775 385.604 78.775 400 51.875C413.333 24.975 426.667 24.975 440 51.875C450.087 65.675 463.42 65.675 480 51.875C493.333 38.075 506.667 38.075 520 51.875C534.493 68.075 547.826 68.075 560 51.875C573.333 35.675 586.667 35.675 600 51.875C618.025 79.475 631.358 79.475 640 51.875C653.333 24.275 666.667 24.275 680 51.875C694.517 84.375 707.85 84.375 720 51.875C733.333 19.375 746.667 19.375 760 51.875C771.2 73.975 784.533 73.975 800 51.875C813.333 29.775 826.667 29.775 840 51.875C855.264 80.375 868.597 80.375 880 51.875C893.333 23.375 906.667 23.375 920 51.875C933.099 79.375 946.433 79.375 960 51.875C973.333 24.375 986.667 24.375 1000 51.875C1016 90.375 1029.33 90.375 1040 51.875C1053.33 13.375 1066.67 13.375 1080 51.875C1091.95 82.375 1105.28 82.375 1120 51.875C1133.33 21.375 1146.67 21.375 1160 51.875C1169.75 65.975 1183.08 65.975 1200 51.875" stroke="#6924FF" stroke-width="2"/>
<path d="M0 77.875C13.3333 63.975 26.6667 63.975 40 77.875C58.753 103.075 72.0863 103.075 80 77.875C93.3333 52.675 106.667 52.675 120 77.875C131.693 96.875 145.026 96.875 160 77.875C173.333 58.875 186.667 58.875 200 77.875C213.298 96.775 226.632 96.775 240 77.875C253.333 58.975 266.667 58.975 280 77.875C297.954 109.875 311.287 109.875 320 77.875C333.333 45.875 346.667 45.875 360 77.875C372.271 104.775 385.604 104.775 400 77.875C413.333 50.975 426.667 50.975 440 77.875C450.087 91.675 463.42 91.675 480 77.875C493.333 64.075 506.667 64.075 520 77.875C534.493 94.075 547.826 94.075 560 77.875C573.333 61.675 586.667 61.675 600 77.875C618.025 105.475 631.358 105.475 640 77.875C653.333 50.275 666.667 50.275 680 77.875C694.517 110.375 707.85 110.375 720 77.875C733.333 45.375 746.667 45.375 760 77.875C771.2 99.975 784.533 99.975 800 77.875C813.333 55.775 826.667 55.775 840 77.875C855.264 106.375 868.597 106.375 880 77.875C893.333 49.375 906.667 49.375 920 77.875C933.099 105.375 946.433 105.375 960 77.875C973.333 50.375 986.667 50.375 1000 77.875C1016 116.375 1029.33 116.375 1040 77.875C1053.33 39.375 1066.67 39.375 1080 77.875C1091.95 108.375 1105.28 108.375 1120 77.875C1133.33 47.375 1146.67 47.375 1160 77.875C1169.75 91.975 1183.08 91.975 1200 77.875" stroke="#6F6DFF" stroke-width="2"/>
</svg>
